Coordinates
version=1
nRows=34
nColumns=38
inDegrees=no

Units are S.I. units (second, meters, Newtons, ...)
If the header above contains a line with 'inDegrees', this indicates whether rotational values are in degrees (yes) or radians (no).

endheader
time	pelvis_tilt	pelvis_list	pelvis_rotation	pelvis_tx	pelvis_ty	pelvis_tz	hip_flexion_r	hip_adduction_r	hip_rotation_r	knee_angle_r	ankle_angle_r	subtalar_angle_r	mtp_angle_r	hip_flexion_l	hip_adduction_l	hip_rotation_l	knee_angle_l	ankle_angle_l	subtalar_angle_l	mtp_angle_l	lumbar_extension	lumbar_bending	lumbar_rotation	arm_flex_r	arm_add_r	arm_rot_r	elbow_flex_r	pro_sup_r	wrist_flex_r	wrist_dev_r	arm_flex_l	arm_add_l	arm_rot_l	elbow_flex_l	pro_sup_l	wrist_flex_l	wrist_dev_l
0.76	0.336385	1.50312	-1.88878	0.736177	1.26517	0.927599	0.375875	-0.106593	-0.294202	0.111271	0.0841012	0	0	-0.309418	0.0745555	-0.158991	0	0.171168	0	0	-0.206011	0.00119103	-0.162644	0.00546728	-0.294127	0.451371	0.640004	1.34382	0	0	0.108024	-0.463019	0.279785	0.890882	1.02595	0	0
0.77	0.331917	1.5033	-1.88199	0.735679	1.25645	0.926186	0.370913	-0.100345	-0.288156	0.0827081	0.0777527	0	0	-0.318727	0.0720887	-0.159129	0.00133482	0.178865	0	0	-0.208129	0.00409925	-0.162927	0.00773607	-0.293011	0.4545	0.634853	1.34416	0	0	0.110845	-0.461484	0.282588	0.887534	1.02586	0	0
0.78	0.33076	1.50241	-1.87793	0.735191	1.24752	0.924817	0.36965	-0.0972319	-0.291157	0.0722442	0.076796	0	0	-0.327913	0.0697221	-0.160428	0.00655136	0.186779	0	0	-0.210946	0.00662328	-0.1638	0.00970716	-0.291763	0.455392	0.630342	1.34369	0	0	0.112707	-0.459684	0.285348	0.883766	1.02811	0	0
0.79	0.316968	1.49984	-1.85987	0.734794	1.23833	0.923674	0.367653	-0.0953752	-0.297315	0.0726734	0.0765319	0	0	-0.337635	0.0660118	-0.163727	0.0153046	0.196184	0	0	-0.215408	0.00997708	-0.165922	0.01168	-0.290575	0.456108	0.625552	1.34199	0	0	0.113922	-0.45749	0.288586	0.878932	1.03113	0	0
0.8	0.305617	1.49651	-1.84324	0.734447	1.22907	0.922637	0.369692	-0.0965225	-0.312354	0.0907239	0.0807344	0	0	-0.343167	0.0609739	-0.174978	0.0346868	0.211762	0	0	-0.220505	0.0134422	-0.169599	0.0150583	-0.293272	0.478705	0.622598	1.30671	0	0	0.1141	-0.454614	0.289496	0.872032	1.04784	0	0
0.81	0.296248	1.49254	-1.82836	0.734112	1.21937	0.921725	0.370437	-0.0982228	-0.325025	0.114349	0.0827754	0	0	-0.353596	0.0567865	-0.17635	0.04525	0.218924	0	0	-0.225294	0.0166986	-0.172651	0.015956	-0.292251	0.479458	0.617239	1.31716	0	0	0.113719	-0.451719	0.293976	0.864786	1.04873	0	0
0.82	0.289575	1.48865	-1.81519	0.733721	1.20938	0.920837	0.373915	-0.101172	-0.345003	0.150515	0.0886008	0	0	-0.361861	0.0514717	-0.180342	0.0606896	0.228015	0	0	-0.229281	0.0198417	-0.176843	0.0167019	-0.290776	0.478871	0.611431	1.32362	0	0	0.111838	-0.448884	0.298493	0.857951	1.05018	0	0
0.83	0.304634	1.48543	-1.82225	0.733488	1.19907	0.919858	0.376528	-0.107981	-0.361759	0.189021	0.0934787	0	0	-0.367936	0.0467848	-0.184107	0.0786373	0.237016	0	0	-0.23121	0.0217138	-0.182828	0.0167139	-0.289903	0.484858	0.604279	1.33399	0	0	0.107939	-0.445985	0.302599	0.852147	1.05113	0	0
0.84	0.330462	1.48302	-1.84015	0.733144	1.18858	0.91883	0.378198	-0.114856	-0.373399	0.225668	0.0973586	0	0	-0.372073	0.0422817	-0.18868	0.098396	0.245426	0	0	-0.231445	0.0225649	-0.188855	0.0162529	-0.288987	0.49001	0.597707	1.34402	0	0	0.102585	-0.443087	0.30632	0.84692	1.05097	0	0
0.85	0.350286	1.481	-1.85167	0.732612	1.17781	0.917905	0.376147	-0.119128	-0.37805	0.253113	0.101968	0	0	-0.375343	0.0362495	-0.193852	0.119697	0.25302	0	0	-0.230741	0.0237768	-0.195283	0.0153025	-0.287448	0.491769	0.591673	1.35006	0	0	0.0956433	-0.440286	0.310107	0.840446	1.05042	0	0
0.86	0.34748	1.47903	-1.84043	0.731842	1.16681	0.917272	0.370147	-0.118645	-0.377439	0.269524	0.104768	0	0	-0.378678	0.0271229	-0.200135	0.142275	0.259567	0	0	-0.230168	0.0268685	-0.201519	0.0141191	-0.285899	0.494853	0.585378	1.35518	0	0	0.0876599	-0.437305	0.313567	0.833815	1.04919	0	0
0.87	0.340343	1.47882	-1.82654	0.730749	1.15592	0.916733	0.365119	-0.114919	-0.373956	0.277433	0.0977191	0	0	-0.378773	0.016722	-0.208351	0.1675	0.26504	0	0	-0.228315	0.0306266	-0.205755	0.0130682	-0.284645	0.500184	0.578854	1.36182	0	0	0.0797494	-0.433648	0.317432	0.825382	1.04761	0	0
0.88	0.329374	1.48019	-1.81025	0.729355	1.14504	0.916261	0.360284	-0.108772	-0.368493	0.278393	0.0767656	0	0	-0.375494	0.0049747	-0.218104	0.196307	0.269197	0	0	-0.225105	0.0348242	-0.208111	0.0118216	-0.283242	0.502945	0.572655	1.3673	0	0	0.0720968	-0.428859	0.320745	0.816422	1.04448	0	0
0.89	0.312512	1.48251	-1.78923	0.72767	1.13395	0.915856	0.354602	-0.101221	-0.363701	0.276126	0.0482862	0	0	-0.369599	-0.00824362	-0.229484	0.228851	0.271915	0	0	-0.220642	0.0393153	-0.20877	0.00955149	-0.281505	0.501373	0.567274	1.37033	0	0	0.0638588	-0.423673	0.324105	0.806286	1.04067	0	0
0.9	0.290891	1.485	-1.76401	0.72577	1.12264	0.915557	0.348741	-0.0939802	-0.361558	0.276586	0.02329	0	0	-0.361714	-0.0230186	-0.241863	0.265352	0.273363	0	0	-0.21561	0.0438781	-0.208387	0.00622544	-0.280129	0.500642	0.56295	1.37411	0	0	0.0549521	-0.418658	0.328375	0.795278	1.03706	0	0
0.91	0.253056	1.48935	-1.72245	0.723726	1.11126	0.915192	0.346419	-0.0867967	-0.362305	0.28412	0.00630354	0	0	-0.34616	-0.0428908	-0.260545	0.315189	0.277453	0	0	-0.208367	0.0499294	-0.207621	0.00249822	-0.280382	0.506752	0.560356	1.36848	0	0	0.0459907	-0.414118	0.336873	0.784506	1.0228	0	0
0.92	0.189742	1.48878	-1.66079	0.722321	1.1001	0.915601	0.340718	-0.0832944	-0.367461	0.298426	0.00131099	0	0	-0.338298	-0.0478729	-0.250199	0.35306	0.258379	0	0	-0.207634	0.0585416	-0.203753	0.000575628	-0.281623	0.503891	0.558674	1.37325	0	0	0.0362227	-0.406899	0.341133	0.773589	1.02085	0	0
0.93	0.131813	1.48718	-1.59925	0.720559	1.08865	0.916434	0.334787	-0.0785051	-0.368202	0.317076	4.68555e-05	0	0	-0.32858	-0.0661796	-0.252885	0.397531	0.244196	0	0	-0.207148	0.0662758	-0.202054	-0.00264545	-0.282316	0.501027	0.557369	1.37628	0	0	0.027956	-0.400103	0.347529	0.760936	1.01843	0	0
0.94	0.0487809	1.48591	-1.51291	0.718618	1.07738	0.917444	0.328873	-0.0706775	-0.367956	0.334759	0.0026334	0	0	-0.312696	-0.08865	-0.255576	0.450259	0.22546	0	0	-0.206494	0.076338	-0.199143	-0.00533874	-0.283565	0.499297	0.556506	1.37815	0	0	0.0203257	-0.393033	0.355119	0.747697	1.01571	0	0
0.95	-0.0502917	1.48639	-1.41202	0.716373	1.06632	0.91835	0.32469	-0.0606326	-0.367892	0.349773	0.00719995	0	0	-0.289072	-0.113573	-0.257643	0.509781	0.199746	0	0	-0.203635	0.0872933	-0.194329	-0.00755099	-0.2854	0.499546	0.556219	1.37906	0	0	0.0128751	-0.385981	0.362913	0.735874	1.01191	0	0
0.96	-0.161822	1.48925	-1.3001	0.713873	1.05541	0.918951	0.322806	-0.0496709	-0.369346	0.361051	0.0115924	0	0	-0.257509	-0.139197	-0.257284	0.574053	0.165728	0	0	-0.197463	0.0979653	-0.188239	-0.00930505	-0.287975	0.501923	0.556853	1.37858	0	0	0.00475087	-0.379406	0.372293	0.724512	1.00789	0	0
0.97	-0.2858	1.49404	-1.17593	0.711334	1.04478	0.919239	0.322203	-0.03855	-0.372156	0.367577	0.015152	0	0	-0.219039	-0.164112	-0.251892	0.64076	0.123101	0	0	-0.188199	0.107593	-0.181959	-0.0110808	-0.291456	0.505776	0.559329	1.37632	0	0	-0.00371982	-0.373475	0.382735	0.714984	1.00327	0	0
0.98	-0.396312	1.50082	-1.06245	0.708014	1.03397	0.919139	0.323025	-0.0249676	-0.36911	0.371377	0.0158994	0	0	-0.177298	-0.196037	-0.247371	0.705337	0.0798137	0	0	-0.175721	0.111845	-0.176868	-0.0143534	-0.29455	0.512493	0.563872	1.3713	0	0	-0.0124107	-0.369955	0.394038	0.708267	0.996173	0	0
0.99	-0.590916	1.50782	-0.868858	0.705264	1.02358	0.918617	0.325033	-0.0120499	-0.369726	0.370371	0.0210317	0	0	-0.128941	-0.21712	-0.233375	0.770558	0.0252967	0	0	-0.160138	0.119491	-0.170095	-0.0161481	-0.301433	0.526107	0.5722	1.35492	0	0	-0.0224066	-0.36694	0.41004	0.704952	0.980135	0	0
1	-0.904706	1.50809	-0.555928	0.702652	1.01306	0.91724	0.327867	0.00776826	-0.370594	0.366966	0.0280746	0	0	-0.07253	-0.261951	-0.252305	0.851679	-0.0291713	0	0	-0.141553	0.133704	-0.163137	-0.0196948	-0.311389	0.53679	0.585967	1.34392	0	0	-0.0348008	-0.36317	0.423141	0.704688	0.972488	0	0
1.01	-1.0628	1.50599	-0.399389	0.700032	1.00274	0.917144	0.322945	0.0214994	-0.368878	0.3629	0.0357578	0	0	-0.0317217	-0.279181	-0.233882	0.906982	-0.0799081	0	0	-0.131213	0.140871	-0.156521	-0.0189134	-0.326136	0.578958	0.605223	1.26635	0	0	-0.0451699	-0.36297	0.444608	0.707932	0.939501	0	0
1.02	-1.13658	1.50309	-0.326606	0.697655	0.992668	0.917612	0.31428	0.0319806	-0.368055	0.361267	0.0444776	0	0	0.00358773	-0.291314	-0.213828	0.957654	-0.11827	0	0	-0.126944	0.145751	-0.149992	-0.0175882	-0.333062	0.586563	0.614914	1.26005	0	0	-0.0546538	-0.359617	0.452925	0.707392	0.941688	0	0
1.03	-1.1661	1.50946	-0.297236	0.695501	0.982314	0.917503	0.32692	0.00950756	-0.422533	0.41549	0.0791283	0	0	0.0376374	-0.289327	-0.192776	1.00354	-0.138681	0	0	-0.120868	0.138911	-0.145008	-0.0184065	-0.338002	0.589177	0.625211	1.26843	0	0	-0.0656388	-0.361376	0.469315	0.711319	0.936374	0	0
1.04	-1.09964	1.50694	-0.366426	0.693118	0.97244	0.919064	0.310295	0.0166379	-0.416652	0.415574	0.0887053	0	0	0.0591239	-0.293593	-0.177224	1.04144	-0.143782	0	0	-0.126903	0.139255	-0.135941	-0.0149821	-0.342777	0.589482	0.632656	1.26894	0	0	-0.0726454	-0.359179	0.478584	0.711416	0.937059	0	0
1.05	-1.00178	1.50524	-0.466947	0.690876	0.962773	0.92097	0.291336	0.0212324	-0.410428	0.414476	0.0976952	0	0	0.0776361	-0.294639	-0.163473	1.07492	-0.137834	0	0	-0.135217	0.137221	-0.127057	-0.0104665	-0.347257	0.590556	0.639404	1.27048	0	0	-0.0786458	-0.357434	0.488411	0.71188	0.937866	0	0
1.06	-0.922307	1.49808	-0.550823	0.688433	0.953563	0.923638	0.255238	0.0455131	-0.36686	0.373743	0.0899508	0	0	0.093877	-0.300787	-0.152441	1.10627	-0.123659	0	0	-0.147221	0.140118	-0.116032	-0.00310937	-0.351397	0.58982	0.643381	1.27143	0	0	-0.0823567	-0.353476	0.496692	0.709331	0.938971	0	0
1.07	-0.800925	1.50445	-0.678051	0.686104	0.944049	0.924955	0.254333	0.0255067	-0.397045	0.409313	0.113004	0	0	0.113238	-0.290061	-0.144645	1.13428	-0.104173	0	0	-0.151902	0.127309	-0.106039	0.00180846	-0.353789	0.587125	0.648186	1.27668	0	0	-0.0899893	-0.354296	0.506077	0.715156	0.937568	0	0
1.08	-0.7107	1.50328	-0.772108	0.683785	0.934595	0.927016	0.233925	0.0274014	-0.394188	0.402817	0.119726	0	0	0.130065	-0.28761	-0.13695	1.15646	-0.0875244	0	0	-0.158933	0.122055	-0.0974665	0.00821609	-0.355362	0.583535	0.649437	1.28052	0	0	-0.0968431	-0.352092	0.50979	0.71727	0.938294	0	0
1.09	-0.642257	1.50017	-0.845299	0.681368	0.925325	0.9293	0.206289	0.037926	-0.37438	0.378372	0.119016	0	0	0.145249	-0.287442	-0.132061	1.17289	-0.0743848	0	0	-0.166475	0.11862	-0.0880054	0.0155476	-0.356968	0.579786	0.649703	1.28417	0	0	-0.10302	-0.349018	0.513742	0.716808	0.940076	0	0
